<svg width="1353" height="265" viewBox="0 0 1353 265" fill="none" xmlns="http://www.w3.org/2000/svg">
<path d="M161.024 0H178.654V264.275H161.024V0Z" fill="#456F57"/>
<path d="M138.692 0H162.199V11.7456H138.692V0Z" fill="#456F57"/>
<path d="M161.024 18.7929C161.024 14.9008 157.866 11.7457 153.972 11.7456H161.024V18.7929Z" fill="#456F57"/>
<path d="M149.27 260.751C155.761 260.751 161.023 255.492 161.024 249.006V260.751H149.27Z" fill="#456F57"/>
<path d="M178.654 249.006C178.654 255.493 183.916 260.751 190.408 260.751H178.654V249.006Z" fill="#456F57"/>
<path d="M138.692 260.751H161.024V264.275H138.692V260.751Z" fill="#456F57"/>
<path d="M176.303 260.751H198.635V264.275H176.303V260.751Z" fill="#456F57"/>
<path d="M178.654 0H248V12.9201H178.654V0Z" fill="#456F57"/>
<path d="M235.071 12.9201H248V97.4881L235.071 103.948V12.9201Z" fill="#456F57"/>
<path d="M235.071 217.293H248V134.362L235.071 128.027L235.071 217.293Z" fill="#456F57"/>
<path d="M178.654 217.293H248V232.562H178.654V217.293Z" fill="#456F57"/>
<path d="M203.336 65.7751H216.265V170.311H203.336V65.7751Z" fill="#456F57"/>
<path d="M178.654 97.4881H195.109V104.535H178.654V97.4881Z" fill="#456F57"/>
<path d="M178.654 135.074H195.109V142.121H178.654V135.074Z" fill="#456F57"/>
<path d="M203.84 88.0917L206.333 90.5833L195.252 101.658L192.758 99.1659L203.84 88.0917Z" fill="#456F57"/>
<path d="M203.84 125.677L206.333 128.169L195.252 139.243L192.758 136.752L203.84 125.677Z" fill="#456F57"/>
<path d="M205.995 110.611L203.497 113.098L192.758 102.324L195.257 99.8373L205.995 110.611Z" fill="#456F57"/>
<path d="M205.995 148.197L203.497 150.683L192.758 139.91L195.257 137.423L205.995 148.197Z" fill="#456F57"/>
<path d="M138.692 217.293H161.024V232.562H138.692V217.293Z" fill="#456F57"/>
<path d="M91.6777 97.4881H161.024V106.885H91.6777V97.4881Z" fill="#456F57"/>
<path d="M91.6777 135.074H161.024V142.121H91.6777V135.074Z" fill="#456F57"/>
<path d="M88.2842 0H70.3888V264.275H88.2842V0Z" fill="#456F57"/>
<path d="M110.952 0H87.0912V11.7456H110.952V0Z" fill="#456F57"/>
<path d="M88.2842 18.7929C88.2842 14.9008 91.4891 11.7457 95.4424 11.7456H88.2842V18.7929Z" fill="#456F57"/>
<path d="M100.215 260.751C93.6257 260.751 88.2844 255.492 88.2842 249.006V260.751H100.215Z" fill="#456F57"/>
<path d="M70.3888 249.006C70.3888 255.493 65.0472 260.751 58.4585 260.751H70.3888V249.006Z" fill="#456F57"/>
<path d="M110.952 260.751H88.2842V264.275H110.952V260.751Z" fill="#456F57"/>
<path d="M72.7748 260.751H50.1073V264.275H72.7748V260.751Z" fill="#456F57"/>
<path d="M70.3888 0H0V12.9201H70.3888V0Z" fill="#456F57"/>
<path d="M13.1233 12.9201H0V97.4881L13.1233 103.948V12.9201Z" fill="#456F57"/>
<path d="M13.1233 217.293H0V134.362L13.1233 128.027L13.1233 217.293Z" fill="#456F57"/>
<path d="M70.3888 217.293H0V232.562H70.3888V217.293Z" fill="#456F57"/>
<path d="M45.3351 65.7751H32.2118V170.311H45.3351V65.7751Z" fill="#456F57"/>
<path d="M70.3888 97.4881H53.6863V104.535H70.3888V97.4881Z" fill="#456F57"/>
<path d="M70.3888 135.074H53.6863V142.121H70.3888V135.074Z" fill="#456F57"/>
<path d="M44.824 88.0917L42.2932 90.5833L53.5416 101.658L56.0724 99.1659L44.824 88.0917Z" fill="#456F57"/>
<path d="M44.824 125.677L42.2932 128.169L53.5416 139.243L56.0724 136.752L44.824 125.677Z" fill="#456F57"/>
<path d="M42.6364 110.611L45.1722 113.098L56.0723 102.324L53.5366 99.8373L42.6364 110.611Z" fill="#456F57"/>
<path d="M42.6364 148.197L45.1722 150.683L56.0723 139.91L53.5366 137.423L42.6364 148.197Z" fill="#456F57"/>
<path d="M110.952 217.293H88.2842V232.562H110.952V217.293Z" fill="#456F57"/>
<path d="M158.673 97.4881H88.2842V106.885H158.673V97.4881Z" fill="#456F57"/>
<path d="M158.673 135.074H88.2842V142.121H158.673V135.074Z" fill="#456F57"/>
<path d="M358.68 78.0374H345.08V76.4374H385.88V78.0374H372.28V130.357H421.88V78.0374H408.28V76.4374H449.08V78.0374H435.48V186.037H449.08V187.637H408.28V186.037H421.88V131.957H372.28V186.037H385.88V187.637H345.08V186.037H358.68V78.0374ZM481.569 189.237C477.942 189.237 474.582 188.651 471.489 187.477C468.502 186.197 465.889 184.597 463.649 182.677C461.409 180.651 459.649 178.357 458.369 175.797C457.089 173.131 456.449 170.411 456.449 167.637C456.449 162.411 457.675 158.304 460.129 155.317C462.582 152.224 465.675 149.824 469.409 148.117C473.142 146.304 477.195 144.917 481.569 143.957C485.942 142.997 489.995 141.984 493.729 140.917C497.569 139.744 500.769 138.304 503.329 136.597C505.889 134.891 507.275 132.384 507.489 129.077V122.677C507.489 117.237 506.102 113.131 503.329 110.357C500.555 107.477 496.555 106.037 491.329 106.037C488.022 106.037 485.622 106.464 484.129 107.317C482.635 108.064 481.675 109.024 481.249 110.197C480.822 111.371 480.662 112.704 480.769 114.197C480.982 115.584 481.089 116.917 481.089 118.197C481.089 120.971 480.342 123.211 478.849 124.917C477.355 126.517 475.382 127.317 472.929 127.317C470.475 127.317 468.449 126.571 466.849 125.077C465.249 123.584 464.449 121.771 464.449 119.637C464.449 117.611 465.195 115.691 466.689 113.877C468.182 111.957 470.155 110.304 472.609 108.917C475.062 107.531 477.889 106.464 481.089 105.717C484.395 104.864 487.809 104.437 491.329 104.437C495.595 104.437 499.489 104.971 503.009 106.037C506.529 107.104 509.569 108.544 512.129 110.357C514.689 112.171 516.662 114.357 518.049 116.917C519.542 119.477 520.289 122.304 520.289 125.397V177.717C520.289 182.517 521.569 184.917 524.129 184.917C525.195 184.917 526.155 184.704 527.009 184.277C527.862 183.744 528.875 182.784 530.049 181.397L531.329 182.197C528.022 186.891 524.289 189.237 520.129 189.237C515.649 189.237 512.395 188.011 510.369 185.557C508.449 183.104 507.489 179.264 507.489 174.037V170.197C506.742 172.864 505.515 175.371 503.809 177.717C502.102 180.064 500.075 182.091 497.729 183.797C495.489 185.504 492.929 186.837 490.049 187.797C487.275 188.757 484.449 189.237 481.569 189.237ZM469.889 165.397C469.889 170.197 471.435 174.304 474.529 177.717C477.622 181.024 481.889 182.677 487.329 182.677C489.675 182.677 492.022 182.197 494.369 181.237C496.715 180.277 498.849 178.997 500.769 177.397C502.689 175.797 504.235 173.931 505.409 171.797C506.689 169.557 507.382 167.264 507.489 164.917V134.357C506.422 136.597 504.715 138.411 502.369 139.797C500.129 141.077 497.569 142.251 494.689 143.317C491.915 144.277 489.035 145.237 486.049 146.197C483.169 147.157 480.502 148.437 478.049 150.037C475.702 151.531 473.729 153.504 472.129 155.957C470.635 158.304 469.889 161.451 469.889 165.397ZM602.391 187.637V169.077C600.578 175.157 597.165 180.064 592.151 183.797C587.138 187.424 581.218 189.237 574.391 189.237C566.925 189.237 560.951 187.157 556.471 182.997C552.098 178.731 549.911 173.077 549.911 166.037V107.637H537.111V106.037H562.711V166.677C562.711 172.757 564.151 177.451 567.031 180.757C570.018 183.957 574.231 185.557 579.671 185.557C582.978 185.557 586.018 184.917 588.791 183.637C591.565 182.251 593.965 180.331 595.991 177.877C598.018 175.424 599.565 172.491 600.631 169.077C601.805 165.664 602.391 161.877 602.391 157.717V107.637H589.591V106.037H615.191V186.037H627.991V187.637H602.391ZM645.84 184.757C644.453 184.757 643.333 185.077 642.48 185.717C641.627 186.251 640.88 187.104 640.24 188.277L639.6 189.237H638.48V160.757L639.44 160.437L639.6 163.477C639.813 166.997 640.613 170.251 642 173.237C643.493 176.117 645.467 178.624 647.92 180.757C650.48 182.891 653.467 184.544 656.88 185.717C660.4 186.891 664.24 187.477 668.4 187.477C674.48 187.477 679.227 186.251 682.64 183.797C686.16 181.237 687.92 177.557 687.92 172.757C687.92 168.704 686.693 165.344 684.24 162.677C681.893 160.011 678.907 157.717 675.28 155.797C671.653 153.877 667.707 152.064 663.44 150.357C659.173 148.651 655.227 146.731 651.6 144.597C647.973 142.464 644.933 139.904 642.48 136.917C640.133 133.824 638.96 129.984 638.96 125.397C638.96 122.304 639.6 119.477 640.88 116.917C642.267 114.357 644.133 112.171 646.48 110.357C648.933 108.437 651.813 106.997 655.12 106.037C658.533 104.971 662.213 104.437 666.16 104.437C668.933 104.437 671.28 104.704 673.2 105.237C675.12 105.664 676.827 106.197 678.32 106.837C679.92 107.371 681.413 107.904 682.8 108.437C684.187 108.864 685.627 109.077 687.12 109.077C689.147 109.077 690.8 107.904 692.08 105.557L692.72 104.437H693.84V132.917H692.88V130.837C692.773 127.317 692.027 124.064 690.64 121.077C689.253 117.984 687.387 115.317 685.04 113.077C682.8 110.837 680.133 109.131 677.04 107.957C673.947 106.677 670.64 106.037 667.12 106.037C662.107 106.037 658.107 107.371 655.12 110.037C652.24 112.597 650.8 116.011 650.8 120.277C650.8 124.117 651.973 127.264 654.32 129.717C656.773 132.171 659.813 134.357 663.44 136.277C667.173 138.197 671.12 140.011 675.28 141.717C679.547 143.424 683.493 145.451 687.12 147.797C690.853 150.037 693.893 152.811 696.24 156.117C698.693 159.317 699.92 163.424 699.92 168.437C699.92 175.157 697.307 180.331 692.08 183.957C686.96 187.477 679.493 189.237 669.68 189.237C666.48 189.237 663.707 188.971 661.36 188.437C659.12 188.011 657.093 187.531 655.28 186.997C653.467 186.464 651.813 185.984 650.32 185.557C648.827 185.024 647.333 184.757 645.84 184.757ZM762.549 146.677C762.549 160.437 764.575 170.571 768.629 177.077C772.682 183.584 778.922 186.837 787.349 186.837C795.669 186.837 801.695 183.637 805.429 177.237C809.269 170.837 811.189 160.651 811.189 146.677C811.189 132.704 809.269 122.571 805.429 116.277C801.695 109.984 795.669 106.837 787.349 106.837C770.815 106.837 762.549 120.117 762.549 146.677ZM748.949 146.677C748.949 140.277 749.855 134.517 751.669 129.397C753.589 124.171 756.202 119.744 759.509 116.117C762.922 112.384 766.975 109.504 771.669 107.477C776.469 105.451 781.749 104.437 787.509 104.437C793.055 104.437 798.122 105.451 802.709 107.477C807.295 109.504 811.189 112.384 814.389 116.117C817.695 119.851 820.255 124.331 822.069 129.557C823.882 134.677 824.789 140.384 824.789 146.677C824.789 153.077 823.882 158.891 822.069 164.117C820.255 169.344 817.695 173.824 814.389 177.557C811.189 181.291 807.295 184.171 802.709 186.197C798.122 188.224 793.055 189.237 787.509 189.237C781.749 189.237 776.469 188.224 771.669 186.197C766.975 184.171 762.922 181.291 759.509 177.557C756.202 173.824 753.589 169.344 751.669 164.117C749.855 158.891 748.949 153.077 748.949 146.677ZM833.83 187.637V186.037H846.63V107.637H839.11V106.037H846.63C846.63 102.197 847.483 98.4641 849.19 94.8374C850.897 91.1041 853.083 87.7441 855.75 84.7575C858.523 81.7708 861.617 79.3708 865.03 77.5574C868.443 75.7441 871.91 74.8374 875.43 74.8374C879.483 74.8374 882.737 75.7441 885.19 77.5574C887.75 79.2641 889.03 81.6108 889.03 84.5974C889.03 87.0508 888.283 89.0241 886.79 90.5174C885.403 92.0108 883.483 92.7574 881.03 92.7574C877.937 92.7574 875.857 92.0108 874.79 90.5174C873.83 88.9174 873.19 87.1574 872.87 85.2374C872.657 83.3174 872.443 81.6108 872.23 80.1174C872.123 78.5174 871.377 77.7174 869.99 77.7174C866.897 77.7174 864.337 79.4241 862.31 82.8374C860.39 86.2508 859.43 90.6774 859.43 96.1174V106.037H873.83V107.637H859.43V186.037H872.23V187.637H833.83ZM939.611 187.637V186.037H953.211V78.0374H939.611V76.4374H1017.85L1020.89 113.237H1019.77L1019.29 108.917C1017.8 98.3574 1014.12 90.5708 1008.25 85.5574C1002.49 80.5441 994.118 78.0374 983.131 78.0374H966.811V126.997H977.691C980.998 126.997 983.771 126.624 986.011 125.877C988.251 125.024 990.118 123.797 991.611 122.197C993.211 120.491 994.545 118.304 995.611 115.637C996.678 112.864 997.691 109.557 998.651 105.717H999.771V149.717H998.651C997.798 145.877 996.838 142.624 995.771 139.957C994.705 137.291 993.371 135.157 991.771 133.557C990.171 131.851 988.198 130.624 985.851 129.877C983.611 129.024 980.891 128.597 977.691 128.597H966.811V186.037H983.771C989.531 186.037 994.438 185.504 998.491 184.437C1002.54 183.264 1005.96 181.451 1008.73 178.997C1011.5 176.544 1013.69 173.397 1015.29 169.557C1017 165.611 1018.33 160.864 1019.29 155.317L1020.73 146.997H1021.85L1019.13 187.637H939.611ZM1042.87 184.757C1041.48 184.757 1040.36 185.077 1039.51 185.717C1038.66 186.251 1037.91 187.104 1037.27 188.277L1036.63 189.237H1035.51V160.757L1036.47 160.437L1036.63 163.477C1036.84 166.997 1037.64 170.251 1039.03 173.237C1040.52 176.117 1042.5 178.624 1044.95 180.757C1047.51 182.891 1050.5 184.544 1053.91 185.717C1057.43 186.891 1061.27 187.477 1065.43 187.477C1071.51 187.477 1076.26 186.251 1079.67 183.797C1083.19 181.237 1084.95 177.557 1084.95 172.757C1084.95 168.704 1083.72 165.344 1081.27 162.677C1078.92 160.011 1075.94 157.717 1072.31 155.797C1068.68 153.877 1064.74 152.064 1060.47 150.357C1056.2 148.651 1052.26 146.731 1048.63 144.597C1045 142.464 1041.96 139.904 1039.51 136.917C1037.16 133.824 1035.99 129.984 1035.99 125.397C1035.99 122.304 1036.63 119.477 1037.91 116.917C1039.3 114.357 1041.16 112.171 1043.51 110.357C1045.96 108.437 1048.84 106.997 1052.15 106.037C1055.56 104.971 1059.24 104.437 1063.19 104.437C1065.96 104.437 1068.31 104.704 1070.23 105.237C1072.15 105.664 1073.86 106.197 1075.35 106.837C1076.95 107.371 1078.44 107.904 1079.83 108.437C1081.22 108.864 1082.66 109.077 1084.15 109.077C1086.18 109.077 1087.83 107.904 1089.11 105.557L1089.75 104.437H1090.87V132.917H1089.91V130.837C1089.8 127.317 1089.06 124.064 1087.67 121.077C1086.28 117.984 1084.42 115.317 1082.07 113.077C1079.83 110.837 1077.16 109.131 1074.07 107.957C1070.98 106.677 1067.67 106.037 1064.15 106.037C1059.14 106.037 1055.14 107.371 1052.15 110.037C1049.27 112.597 1047.83 116.011 1047.83 120.277C1047.83 124.117 1049 127.264 1051.35 129.717C1053.8 132.171 1056.84 134.357 1060.47 136.277C1064.2 138.197 1068.15 140.011 1072.31 141.717C1076.58 143.424 1080.52 145.451 1084.15 147.797C1087.88 150.037 1090.92 152.811 1093.27 156.117C1095.72 159.317 1096.95 163.424 1096.95 168.437C1096.95 175.157 1094.34 180.331 1089.11 183.957C1083.99 187.477 1076.52 189.237 1066.71 189.237C1063.51 189.237 1060.74 188.971 1058.39 188.437C1056.15 188.011 1054.12 187.531 1052.31 186.997C1050.5 186.464 1048.84 185.984 1047.35 185.557C1045.86 185.024 1044.36 184.757 1042.87 184.757ZM1145.33 181.717C1142.45 186.731 1137.55 189.237 1130.61 189.237C1120.05 189.237 1114.77 183.531 1114.77 172.117V107.637H1101.17V106.037L1105.17 105.877C1112 105.664 1117.07 103.424 1120.37 99.1574C1123.68 94.7841 1125.55 87.4774 1125.97 77.2374V76.4374H1127.57V106.037H1144.37V107.637H1127.57V175.797C1127.57 179.104 1128.21 181.717 1129.49 183.637C1130.88 185.451 1132.8 186.357 1135.25 186.357C1136.96 186.357 1138.61 185.877 1140.21 184.917C1141.81 183.957 1143.2 182.624 1144.37 180.917L1145.33 181.717ZM1179.38 189.237C1175.75 189.237 1172.39 188.651 1169.3 187.477C1166.31 186.197 1163.7 184.597 1161.46 182.677C1159.22 180.651 1157.46 178.357 1156.18 175.797C1154.9 173.131 1154.26 170.411 1154.26 167.637C1154.26 162.411 1155.49 158.304 1157.94 155.317C1160.39 152.224 1163.49 149.824 1167.22 148.117C1170.95 146.304 1175.01 144.917 1179.38 143.957C1183.75 142.997 1187.81 141.984 1191.54 140.917C1195.38 139.744 1198.58 138.304 1201.14 136.597C1203.7 134.891 1205.09 132.384 1205.3 129.077V122.677C1205.3 117.237 1203.91 113.131 1201.14 110.357C1198.37 107.477 1194.37 106.037 1189.14 106.037C1185.83 106.037 1183.43 106.464 1181.94 107.317C1180.45 108.064 1179.49 109.024 1179.06 110.197C1178.63 111.371 1178.47 112.704 1178.58 114.197C1178.79 115.584 1178.9 116.917 1178.9 118.197C1178.9 120.971 1178.15 123.211 1176.66 124.917C1175.17 126.517 1173.19 127.317 1170.74 127.317C1168.29 127.317 1166.26 126.571 1164.66 125.077C1163.06 123.584 1162.26 121.771 1162.26 119.637C1162.26 117.611 1163.01 115.691 1164.5 113.877C1165.99 111.957 1167.97 110.304 1170.42 108.917C1172.87 107.531 1175.7 106.464 1178.9 105.717C1182.21 104.864 1185.62 104.437 1189.14 104.437C1193.41 104.437 1197.3 104.971 1200.82 106.037C1204.34 107.104 1207.38 108.544 1209.94 110.357C1212.5 112.171 1214.47 114.357 1215.86 116.917C1217.35 119.477 1218.1 122.304 1218.1 125.397V177.717C1218.1 182.517 1219.38 184.917 1221.94 184.917C1223.01 184.917 1223.97 184.704 1224.82 184.277C1225.67 183.744 1226.69 182.784 1227.86 181.397L1229.14 182.197C1225.83 186.891 1222.1 189.237 1217.94 189.237C1213.46 189.237 1210.21 188.011 1208.18 185.557C1206.26 183.104 1205.3 179.264 1205.3 174.037V170.197C1204.55 172.864 1203.33 175.371 1201.62 177.717C1199.91 180.064 1197.89 182.091 1195.54 183.797C1193.3 185.504 1190.74 186.837 1187.86 187.797C1185.09 188.757 1182.26 189.237 1179.38 189.237ZM1167.7 165.397C1167.7 170.197 1169.25 174.304 1172.34 177.717C1175.43 181.024 1179.7 182.677 1185.14 182.677C1187.49 182.677 1189.83 182.197 1192.18 181.237C1194.53 180.277 1196.66 178.997 1198.58 177.397C1200.5 175.797 1202.05 173.931 1203.22 171.797C1204.5 169.557 1205.19 167.264 1205.3 164.917V134.357C1204.23 136.597 1202.53 138.411 1200.18 139.797C1197.94 141.077 1195.38 142.251 1192.5 143.317C1189.73 144.277 1186.85 145.237 1183.86 146.197C1180.98 147.157 1178.31 148.437 1175.86 150.037C1173.51 151.531 1171.54 153.504 1169.94 155.957C1168.45 158.304 1167.7 161.451 1167.7 165.397ZM1275.96 181.717C1273.08 186.731 1268.17 189.237 1261.24 189.237C1250.68 189.237 1245.4 183.531 1245.4 172.117V107.637H1231.8V106.037L1235.8 105.877C1242.63 105.664 1247.69 103.424 1251 99.1574C1254.31 94.7841 1256.17 87.4774 1256.6 77.2374V76.4374H1258.2V106.037H1275V107.637H1258.2V175.797C1258.2 179.104 1258.84 181.717 1260.12 183.637C1261.51 185.451 1263.43 186.357 1265.88 186.357C1267.59 186.357 1269.24 185.877 1270.84 184.917C1272.44 183.957 1273.83 182.624 1275 180.917L1275.96 181.717ZM1315.52 104.437C1326.61 104.437 1334.77 107.904 1340 114.837C1345.23 121.664 1347.84 132.331 1347.84 146.837H1295.36C1295.36 160.277 1297.49 170.464 1301.76 177.397C1306.13 184.224 1312.53 187.637 1320.96 187.637C1328.32 187.637 1334.13 185.611 1338.4 181.557C1342.67 177.397 1345.07 171.531 1345.6 163.957L1347.04 164.277C1346.61 172.064 1344.05 178.197 1339.36 182.677C1334.77 187.051 1328.59 189.237 1320.8 189.237C1314.72 189.237 1309.28 188.277 1304.48 186.357C1299.68 184.331 1295.57 181.504 1292.16 177.877C1288.85 174.144 1286.29 169.664 1284.48 164.437C1282.67 159.104 1281.76 153.184 1281.76 146.677C1281.76 140.277 1282.56 134.464 1284.16 129.237C1285.76 124.011 1288 119.584 1290.88 115.957C1293.87 112.224 1297.44 109.397 1301.6 107.477C1305.76 105.451 1310.4 104.437 1315.52 104.437ZM1315.52 106.837C1308.48 106.837 1303.36 109.931 1300.16 116.117C1297.07 122.197 1295.47 131.904 1295.36 145.237H1334.24C1334.24 138.304 1333.87 132.384 1333.12 127.477C1332.37 122.571 1331.25 118.624 1329.76 115.637C1328.27 112.544 1326.35 110.304 1324 108.917C1321.65 107.531 1318.83 106.837 1315.52 106.837Z" fill="#BD9E63"/>
</svg>
