<svg width="1425" height="341" viewBox="0 0 1425 341" fill="none" xmlns="http://www.w3.org/2000/svg">
<path d="M207.773 0H230.521V341H207.773V0Z" fill="#456F57"/>
<path d="M178.957 0H209.289V15.1556H178.957V0Z" fill="#456F57"/>
<path d="M207.773 24.2489C207.773 19.2269 203.698 15.1557 198.673 15.1556H207.773V24.2489Z" fill="#456F57"/>
<path d="M192.607 336.453C200.982 336.453 207.772 329.668 207.773 321.298V336.453H192.607Z" fill="#456F57"/>
<path d="M230.521 321.298C230.521 329.668 237.312 336.453 245.687 336.453H230.521V321.298Z" fill="#456F57"/>
<path d="M178.957 336.453H207.773V341H178.957V336.453Z" fill="#456F57"/>
<path d="M227.488 336.453H256.303V341H227.488V336.453Z" fill="#456F57"/>
<path d="M230.521 0H320V16.6711H230.521V0Z" fill="#456F57"/>
<path d="M303.318 16.6711H320V125.791L303.318 134.127V16.6711Z" fill="#456F57"/>
<path d="M303.318 280.378H320V173.37L303.318 165.196L303.318 280.378Z" fill="#456F57"/>
<path d="M230.521 280.378H320V300.08H230.521V280.378Z" fill="#456F57"/>
<path d="M262.37 84.8711H279.052V219.756H262.37V84.8711Z" fill="#456F57"/>
<path d="M230.521 125.791H251.754V134.884H230.521V125.791Z" fill="#456F57"/>
<path d="M230.521 174.289H251.754V183.382H230.521V174.289Z" fill="#456F57"/>
<path d="M263.019 113.667L266.237 116.882L251.938 131.171L248.72 127.956L263.019 113.667Z" fill="#456F57"/>
<path d="M263.019 162.164L266.237 165.379L251.938 179.669L248.72 176.454L263.019 162.164Z" fill="#456F57"/>
<path d="M265.8 142.724L262.577 145.932L248.72 132.031L251.944 128.822L265.8 142.724Z" fill="#456F57"/>
<path d="M265.8 191.222L262.577 194.43L248.72 180.529L251.944 177.32L265.8 191.222Z" fill="#456F57"/>
<path d="M178.957 280.378H207.773V300.08H178.957V280.378Z" fill="#456F57"/>
<path d="M118.294 125.791H207.773V137.916H118.294V125.791Z" fill="#456F57"/>
<path d="M118.294 174.289H207.773V183.382H118.294V174.289Z" fill="#456F57"/>
<path d="M113.915 0H90.8242V341H113.915V0Z" fill="#456F57"/>
<path d="M143.164 0H112.376V15.1556H143.164V0Z" fill="#456F57"/>
<path d="M113.915 24.2489C113.915 19.2269 118.051 15.1557 123.151 15.1556H113.915V24.2489Z" fill="#456F57"/>
<path d="M129.309 336.453C120.807 336.453 113.915 329.668 113.915 321.298V336.453H129.309Z" fill="#456F57"/>
<path d="M90.8242 321.298C90.8242 329.668 83.9319 336.453 75.4303 336.453H90.8242V321.298Z" fill="#456F57"/>
<path d="M143.164 336.453H113.915V341H143.164V336.453Z" fill="#456F57"/>
<path d="M93.903 336.453H64.6545V341H93.903V336.453Z" fill="#456F57"/>
<path d="M90.8242 0H0V16.6711H90.8242V0Z" fill="#456F57"/>
<path d="M16.9333 16.6711H0V125.791L16.9333 134.127V16.6711Z" fill="#456F57"/>
<path d="M16.9333 280.378H0V173.37L16.9333 165.196L16.9333 280.378Z" fill="#456F57"/>
<path d="M90.8242 280.378H0V300.08H90.8242V280.378Z" fill="#456F57"/>
<path d="M58.497 84.8711H41.5636V219.756H58.497V84.8711Z" fill="#456F57"/>
<path d="M90.8242 125.791H69.2727V134.884H90.8242V125.791Z" fill="#456F57"/>
<path d="M90.8242 174.289H69.2727V183.382H90.8242V174.289Z" fill="#456F57"/>
<path d="M57.8374 113.667L54.5718 116.882L69.0859 131.171L72.3515 127.956L57.8374 113.667Z" fill="#456F57"/>
<path d="M57.8374 162.164L54.5718 165.379L69.0859 179.669L72.3515 176.454L57.8374 162.164Z" fill="#456F57"/>
<path d="M55.0147 142.724L58.2867 145.932L72.3514 132.031L69.0794 128.822L55.0147 142.724Z" fill="#456F57"/>
<path d="M55.0147 191.222L58.2867 194.43L72.3514 180.529L69.0794 177.32L55.0147 191.222Z" fill="#456F57"/>
<path d="M143.164 280.378H113.915V300.08H143.164V280.378Z" fill="#456F57"/>
<path d="M204.739 125.791H113.915V137.916H204.739V125.791Z" fill="#456F57"/>
<path d="M204.739 174.289H113.915V183.382H204.739V174.289Z" fill="#456F57"/>
<path d="M430.68 116.4H417.08V114.8H457.88V116.4H444.28V168.72H493.88V116.4H480.28V114.8H521.08V116.4H507.48V224.4H521.08V226H480.28V224.4H493.88V170.32H444.28V224.4H457.88V226H417.08V224.4H430.68V116.4ZM553.569 227.6C549.942 227.6 546.582 227.013 543.489 225.84C540.502 224.56 537.889 222.96 535.649 221.04C533.409 219.013 531.649 216.72 530.369 214.16C529.089 211.493 528.449 208.773 528.449 206C528.449 200.773 529.675 196.667 532.129 193.68C534.582 190.587 537.675 188.187 541.409 186.48C545.142 184.667 549.195 183.28 553.569 182.32C557.942 181.36 561.995 180.347 565.729 179.28C569.569 178.107 572.769 176.667 575.329 174.96C577.889 173.253 579.275 170.747 579.489 167.44V161.04C579.489 155.6 578.102 151.493 575.329 148.72C572.555 145.84 568.555 144.4 563.329 144.4C560.022 144.4 557.622 144.827 556.129 145.68C554.635 146.427 553.675 147.387 553.249 148.56C552.822 149.733 552.662 151.067 552.769 152.56C552.982 153.947 553.089 155.28 553.089 156.56C553.089 159.333 552.342 161.573 550.849 163.28C549.355 164.88 547.382 165.68 544.929 165.68C542.475 165.68 540.449 164.933 538.849 163.44C537.249 161.947 536.449 160.133 536.449 158C536.449 155.973 537.195 154.053 538.689 152.24C540.182 150.32 542.155 148.667 544.609 147.28C547.062 145.893 549.889 144.827 553.089 144.08C556.395 143.227 559.809 142.8 563.329 142.8C567.595 142.8 571.489 143.333 575.009 144.4C578.529 145.467 581.569 146.907 584.129 148.72C586.689 150.533 588.662 152.72 590.049 155.28C591.542 157.84 592.289 160.667 592.289 163.76V216.08C592.289 220.88 593.569 223.28 596.129 223.28C597.195 223.28 598.155 223.067 599.009 222.64C599.862 222.107 600.875 221.147 602.049 219.76L603.329 220.56C600.022 225.253 596.289 227.6 592.129 227.6C587.649 227.6 584.395 226.373 582.369 223.92C580.449 221.467 579.489 217.627 579.489 212.4V208.56C578.742 211.227 577.515 213.733 575.809 216.08C574.102 218.427 572.075 220.453 569.729 222.16C567.489 223.867 564.929 225.2 562.049 226.16C559.275 227.12 556.449 227.6 553.569 227.6ZM541.889 203.76C541.889 208.56 543.435 212.667 546.529 216.08C549.622 219.387 553.889 221.04 559.329 221.04C561.675 221.04 564.022 220.56 566.369 219.6C568.715 218.64 570.849 217.36 572.769 215.76C574.689 214.16 576.235 212.293 577.409 210.16C578.689 207.92 579.382 205.627 579.489 203.28V172.72C578.422 174.96 576.715 176.773 574.369 178.16C572.129 179.44 569.569 180.613 566.689 181.68C563.915 182.64 561.035 183.6 558.049 184.56C555.169 185.52 552.502 186.8 550.049 188.4C547.702 189.893 545.729 191.867 544.129 194.32C542.635 196.667 541.889 199.813 541.889 203.76ZM674.391 226V207.44C672.578 213.52 669.165 218.427 664.151 222.16C659.138 225.787 653.218 227.6 646.391 227.6C638.925 227.6 632.951 225.52 628.471 221.36C624.098 217.093 621.911 211.44 621.911 204.4V146H609.111V144.4H634.711V205.04C634.711 211.12 636.151 215.813 639.031 219.12C642.018 222.32 646.231 223.92 651.671 223.92C654.978 223.92 658.018 223.28 660.791 222C663.565 220.613 665.965 218.693 667.991 216.24C670.018 213.787 671.565 210.853 672.631 207.44C673.805 204.027 674.391 200.24 674.391 196.08V146H661.591V144.4H687.191V224.4H699.991V226H674.391ZM717.84 223.12C716.453 223.12 715.333 223.44 714.48 224.08C713.627 224.613 712.88 225.467 712.24 226.64L711.6 227.6H710.48V199.12L711.44 198.8L711.6 201.84C711.813 205.36 712.613 208.613 714 211.6C715.493 214.48 717.467 216.987 719.92 219.12C722.48 221.253 725.467 222.907 728.88 224.08C732.4 225.253 736.24 225.84 740.4 225.84C746.48 225.84 751.227 224.613 754.64 222.16C758.16 219.6 759.92 215.92 759.92 211.12C759.92 207.067 758.693 203.707 756.24 201.04C753.893 198.373 750.907 196.08 747.28 194.16C743.653 192.24 739.707 190.427 735.44 188.72C731.173 187.013 727.227 185.093 723.6 182.96C719.973 180.827 716.933 178.267 714.48 175.28C712.133 172.187 710.96 168.347 710.96 163.76C710.96 160.667 711.6 157.84 712.88 155.28C714.267 152.72 716.133 150.533 718.48 148.72C720.933 146.8 723.813 145.36 727.12 144.4C730.533 143.333 734.213 142.8 738.16 142.8C740.933 142.8 743.28 143.067 745.2 143.6C747.12 144.027 748.827 144.56 750.32 145.2C751.92 145.733 753.413 146.267 754.8 146.8C756.187 147.227 757.627 147.44 759.12 147.44C761.147 147.44 762.8 146.267 764.08 143.92L764.72 142.8H765.84V171.28H764.88V169.2C764.773 165.68 764.027 162.427 762.64 159.44C761.253 156.347 759.387 153.68 757.04 151.44C754.8 149.2 752.133 147.493 749.04 146.32C745.947 145.04 742.64 144.4 739.12 144.4C734.107 144.4 730.107 145.733 727.12 148.4C724.24 150.96 722.8 154.373 722.8 158.64C722.8 162.48 723.973 165.627 726.32 168.08C728.773 170.533 731.813 172.72 735.44 174.64C739.173 176.56 743.12 178.373 747.28 180.08C751.547 181.787 755.493 183.813 759.12 186.16C762.853 188.4 765.893 191.173 768.24 194.48C770.693 197.68 771.92 201.787 771.92 206.8C771.92 213.52 769.307 218.693 764.08 222.32C758.96 225.84 751.493 227.6 741.68 227.6C738.48 227.6 735.707 227.333 733.36 226.8C731.12 226.373 729.093 225.893 727.28 225.36C725.467 224.827 723.813 224.347 722.32 223.92C720.827 223.387 719.333 223.12 717.84 223.12ZM834.549 185.04C834.549 198.8 836.575 208.933 840.629 215.44C844.682 221.947 850.922 225.2 859.349 225.2C867.669 225.2 873.695 222 877.429 215.6C881.269 209.2 883.189 199.013 883.189 185.04C883.189 171.067 881.269 160.933 877.429 154.64C873.695 148.347 867.669 145.2 859.349 145.2C842.815 145.2 834.549 158.48 834.549 185.04ZM820.949 185.04C820.949 178.64 821.855 172.88 823.669 167.76C825.589 162.533 828.202 158.107 831.509 154.48C834.922 150.747 838.975 147.867 843.669 145.84C848.469 143.813 853.749 142.8 859.509 142.8C865.055 142.8 870.122 143.813 874.709 145.84C879.295 147.867 883.189 150.747 886.389 154.48C889.695 158.213 892.255 162.693 894.069 167.92C895.882 173.04 896.789 178.747 896.789 185.04C896.789 191.44 895.882 197.253 894.069 202.48C892.255 207.707 889.695 212.187 886.389 215.92C883.189 219.653 879.295 222.533 874.709 224.56C870.122 226.587 865.055 227.6 859.509 227.6C853.749 227.6 848.469 226.587 843.669 224.56C838.975 222.533 834.922 219.653 831.509 215.92C828.202 212.187 825.589 207.707 823.669 202.48C821.855 197.253 820.949 191.44 820.949 185.04ZM905.83 226V224.4H918.63V146H911.11V144.4H918.63C918.63 140.56 919.483 136.827 921.19 133.2C922.897 129.467 925.083 126.107 927.75 123.12C930.523 120.133 933.617 117.733 937.03 115.92C940.443 114.107 943.91 113.2 947.43 113.2C951.483 113.2 954.737 114.107 957.19 115.92C959.75 117.627 961.03 119.973 961.03 122.96C961.03 125.413 960.283 127.387 958.79 128.88C957.403 130.373 955.483 131.12 953.03 131.12C949.937 131.12 947.857 130.373 946.79 128.88C945.83 127.28 945.19 125.52 944.87 123.6C944.657 121.68 944.443 119.973 944.23 118.48C944.123 116.88 943.377 116.08 941.99 116.08C938.897 116.08 936.337 117.787 934.31 121.2C932.39 124.613 931.43 129.04 931.43 134.48V144.4H945.83V146H931.43V224.4H944.23V226H905.83ZM1011.61 226V224.4H1025.21V116.4H1011.61V114.8H1089.85L1092.89 151.6H1091.77L1091.29 147.28C1089.8 136.72 1086.12 128.933 1080.25 123.92C1074.49 118.907 1066.12 116.4 1055.13 116.4H1038.81V165.36H1049.69C1053 165.36 1055.77 164.987 1058.01 164.24C1060.25 163.387 1062.12 162.16 1063.61 160.56C1065.21 158.853 1066.54 156.667 1067.61 154C1068.68 151.227 1069.69 147.92 1070.65 144.08H1071.77V188.08H1070.65C1069.8 184.24 1068.84 180.987 1067.77 178.32C1066.7 175.653 1065.37 173.52 1063.77 171.92C1062.17 170.213 1060.2 168.987 1057.85 168.24C1055.61 167.387 1052.89 166.96 1049.69 166.96H1038.81V224.4H1055.77C1061.53 224.4 1066.44 223.867 1070.49 222.8C1074.54 221.627 1077.96 219.813 1080.73 217.36C1083.5 214.907 1085.69 211.76 1087.29 207.92C1089 203.973 1090.33 199.227 1091.29 193.68L1092.73 185.36H1093.85L1091.13 226H1011.61ZM1114.87 223.12C1113.48 223.12 1112.36 223.44 1111.51 224.08C1110.66 224.613 1109.91 225.467 1109.27 226.64L1108.63 227.6H1107.51V199.12L1108.47 198.8L1108.63 201.84C1108.84 205.36 1109.64 208.613 1111.03 211.6C1112.52 214.48 1114.5 216.987 1116.95 219.12C1119.51 221.253 1122.5 222.907 1125.91 224.08C1129.43 225.253 1133.27 225.84 1137.43 225.84C1143.51 225.84 1148.26 224.613 1151.67 222.16C1155.19 219.6 1156.95 215.92 1156.95 211.12C1156.95 207.067 1155.72 203.707 1153.27 201.04C1150.92 198.373 1147.94 196.08 1144.31 194.16C1140.68 192.24 1136.74 190.427 1132.47 188.72C1128.2 187.013 1124.26 185.093 1120.63 182.96C1117 180.827 1113.96 178.267 1111.51 175.28C1109.16 172.187 1107.99 168.347 1107.99 163.76C1107.99 160.667 1108.63 157.84 1109.91 155.28C1111.3 152.72 1113.16 150.533 1115.51 148.72C1117.96 146.8 1120.84 145.36 1124.15 144.4C1127.56 143.333 1131.24 142.8 1135.19 142.8C1137.96 142.8 1140.31 143.067 1142.23 143.6C1144.15 144.027 1145.86 144.56 1147.35 145.2C1148.95 145.733 1150.44 146.267 1151.83 146.8C1153.22 147.227 1154.66 147.44 1156.15 147.44C1158.18 147.44 1159.83 146.267 1161.11 143.92L1161.75 142.8H1162.87V171.28H1161.91V169.2C1161.8 165.68 1161.06 162.427 1159.67 159.44C1158.28 156.347 1156.42 153.68 1154.07 151.44C1151.83 149.2 1149.16 147.493 1146.07 146.32C1142.98 145.04 1139.67 144.4 1136.15 144.4C1131.14 144.4 1127.14 145.733 1124.15 148.4C1121.27 150.96 1119.83 154.373 1119.83 158.64C1119.83 162.48 1121 165.627 1123.35 168.08C1125.8 170.533 1128.84 172.72 1132.47 174.64C1136.2 176.56 1140.15 178.373 1144.31 180.08C1148.58 181.787 1152.52 183.813 1156.15 186.16C1159.88 188.4 1162.92 191.173 1165.27 194.48C1167.72 197.68 1168.95 201.787 1168.95 206.8C1168.95 213.52 1166.34 218.693 1161.11 222.32C1155.99 225.84 1148.52 227.6 1138.71 227.6C1135.51 227.6 1132.74 227.333 1130.39 226.8C1128.15 226.373 1126.12 225.893 1124.31 225.36C1122.5 224.827 1120.84 224.347 1119.35 223.92C1117.86 223.387 1116.36 223.12 1114.87 223.12ZM1217.33 220.08C1214.45 225.093 1209.55 227.6 1202.61 227.6C1192.05 227.6 1186.77 221.893 1186.77 210.48V146H1173.17V144.4L1177.17 144.24C1184 144.027 1189.07 141.787 1192.37 137.52C1195.68 133.147 1197.55 125.84 1197.97 115.6V114.8H1199.57V144.4H1216.37V146H1199.57V214.16C1199.57 217.467 1200.21 220.08 1201.49 222C1202.88 223.813 1204.8 224.72 1207.25 224.72C1208.96 224.72 1210.61 224.24 1212.21 223.28C1213.81 222.32 1215.2 220.987 1216.37 219.28L1217.33 220.08ZM1251.38 227.6C1247.75 227.6 1244.39 227.013 1241.3 225.84C1238.31 224.56 1235.7 222.96 1233.46 221.04C1231.22 219.013 1229.46 216.72 1228.18 214.16C1226.9 211.493 1226.26 208.773 1226.26 206C1226.26 200.773 1227.49 196.667 1229.94 193.68C1232.39 190.587 1235.49 188.187 1239.22 186.48C1242.95 184.667 1247.01 183.28 1251.38 182.32C1255.75 181.36 1259.81 180.347 1263.54 179.28C1267.38 178.107 1270.58 176.667 1273.14 174.96C1275.7 173.253 1277.09 170.747 1277.3 167.44V161.04C1277.3 155.6 1275.91 151.493 1273.14 148.72C1270.37 145.84 1266.37 144.4 1261.14 144.4C1257.83 144.4 1255.43 144.827 1253.94 145.68C1252.45 146.427 1251.49 147.387 1251.06 148.56C1250.63 149.733 1250.47 151.067 1250.58 152.56C1250.79 153.947 1250.9 155.28 1250.9 156.56C1250.9 159.333 1250.15 161.573 1248.66 163.28C1247.17 164.88 1245.19 165.68 1242.74 165.68C1240.29 165.68 1238.26 164.933 1236.66 163.44C1235.06 161.947 1234.26 160.133 1234.26 158C1234.26 155.973 1235.01 154.053 1236.5 152.24C1237.99 150.32 1239.97 148.667 1242.42 147.28C1244.87 145.893 1247.7 144.827 1250.9 144.08C1254.21 143.227 1257.62 142.8 1261.14 142.8C1265.41 142.8 1269.3 143.333 1272.82 144.4C1276.34 145.467 1279.38 146.907 1281.94 148.72C1284.5 150.533 1286.47 152.72 1287.86 155.28C1289.35 157.84 1290.1 160.667 1290.1 163.76V216.08C1290.1 220.88 1291.38 223.28 1293.94 223.28C1295.01 223.28 1295.97 223.067 1296.82 222.64C1297.67 222.107 1298.69 221.147 1299.86 219.76L1301.14 220.56C1297.83 225.253 1294.1 227.6 1289.94 227.6C1285.46 227.6 1282.21 226.373 1280.18 223.92C1278.26 221.467 1277.3 217.627 1277.3 212.4V208.56C1276.55 211.227 1275.33 213.733 1273.62 216.08C1271.91 218.427 1269.89 220.453 1267.54 222.16C1265.3 223.867 1262.74 225.2 1259.86 226.16C1257.09 227.12 1254.26 227.6 1251.38 227.6ZM1239.7 203.76C1239.7 208.56 1241.25 212.667 1244.34 216.08C1247.43 219.387 1251.7 221.04 1257.14 221.04C1259.49 221.04 1261.83 220.56 1264.18 219.6C1266.53 218.64 1268.66 217.36 1270.58 215.76C1272.5 214.16 1274.05 212.293 1275.22 210.16C1276.5 207.92 1277.19 205.627 1277.3 203.28V172.72C1276.23 174.96 1274.53 176.773 1272.18 178.16C1269.94 179.44 1267.38 180.613 1264.5 181.68C1261.73 182.64 1258.85 183.6 1255.86 184.56C1252.98 185.52 1250.31 186.8 1247.86 188.4C1245.51 189.893 1243.54 191.867 1241.94 194.32C1240.45 196.667 1239.7 199.813 1239.7 203.76ZM1347.96 220.08C1345.08 225.093 1340.17 227.6 1333.24 227.6C1322.68 227.6 1317.4 221.893 1317.4 210.48V146H1303.8V144.4L1307.8 144.24C1314.63 144.027 1319.69 141.787 1323 137.52C1326.31 133.147 1328.17 125.84 1328.6 115.6V114.8H1330.2V144.4H1347V146H1330.2V214.16C1330.2 217.467 1330.84 220.08 1332.12 222C1333.51 223.813 1335.43 224.72 1337.88 224.72C1339.59 224.72 1341.24 224.24 1342.84 223.28C1344.44 222.32 1345.83 220.987 1347 219.28L1347.96 220.08ZM1387.52 142.8C1398.61 142.8 1406.77 146.267 1412 153.2C1417.23 160.027 1419.84 170.693 1419.84 185.2H1367.36C1367.36 198.64 1369.49 208.827 1373.76 215.76C1378.13 222.587 1384.53 226 1392.96 226C1400.32 226 1406.13 223.973 1410.4 219.92C1414.67 215.76 1417.07 209.893 1417.6 202.32L1419.04 202.64C1418.61 210.427 1416.05 216.56 1411.36 221.04C1406.77 225.413 1400.59 227.6 1392.8 227.6C1386.72 227.6 1381.28 226.64 1376.48 224.72C1371.68 222.693 1367.57 219.867 1364.16 216.24C1360.85 212.507 1358.29 208.027 1356.48 202.8C1354.67 197.467 1353.76 191.547 1353.76 185.04C1353.76 178.64 1354.56 172.827 1356.16 167.6C1357.76 162.373 1360 157.947 1362.88 154.32C1365.87 150.587 1369.44 147.76 1373.6 145.84C1377.76 143.813 1382.4 142.8 1387.52 142.8ZM1387.52 145.2C1380.48 145.2 1375.36 148.293 1372.16 154.48C1369.07 160.56 1367.47 170.267 1367.36 183.6H1406.24C1406.24 176.667 1405.87 170.747 1405.12 165.84C1404.37 160.933 1403.25 156.987 1401.76 154C1400.27 150.907 1398.35 148.667 1396 147.28C1393.65 145.893 1390.83 145.2 1387.52 145.2Z" fill="#456F57"/>
</svg>
