<svg width="320" height="341" viewBox="0 0 320 341" fill="none" xmlns="http://www.w3.org/2000/svg">
<path d="M207.773 0H230.521V341H207.773V0Z" fill="#181818"/>
<path d="M178.957 0H209.289V15.1556H178.957V0Z" fill="#181818"/>
<path d="M207.773 24.2489C207.773 19.2269 203.698 15.1557 198.673 15.1556H207.773V24.2489Z" fill="#181818"/>
<path d="M192.607 336.453C200.982 336.453 207.772 329.668 207.773 321.298V336.453H192.607Z" fill="#181818"/>
<path d="M230.521 321.298C230.521 329.668 237.312 336.453 245.687 336.453H230.521V321.298Z" fill="#181818"/>
<path d="M178.957 336.453H207.773V341H178.957V336.453Z" fill="#181818"/>
<path d="M227.488 336.453H256.303V341H227.488V336.453Z" fill="#181818"/>
<path d="M230.521 0H320V16.6711H230.521V0Z" fill="#181818"/>
<path d="M303.318 16.6711H320V125.791L303.318 134.127V16.6711Z" fill="#181818"/>
<path d="M303.318 280.378H320V173.37L303.318 165.196V280.378Z" fill="#181818"/>
<path d="M230.521 280.378H320V300.08H230.521V280.378Z" fill="#181818"/>
<path d="M262.37 84.8711H279.052V219.756H262.37V84.8711Z" fill="#181818"/>
<path d="M230.521 125.791H251.754V134.884H230.521V125.791Z" fill="#181818"/>
<path d="M230.521 174.289H251.754V183.382H230.521V174.289Z" fill="#181818"/>
<path d="M263.02 113.667L266.237 116.882L251.938 131.171L248.72 127.956L263.02 113.667Z" fill="#181818"/>
<path d="M263.02 162.164L266.237 165.379L251.938 179.669L248.72 176.454L263.02 162.164Z" fill="#181818"/>
<path d="M265.8 142.724L262.577 145.932L248.72 132.031L251.944 128.822L265.8 142.724Z" fill="#181818"/>
<path d="M265.8 191.222L262.577 194.43L248.72 180.529L251.944 177.32L265.8 191.222Z" fill="#181818"/>
<path d="M178.957 280.378H207.773V300.08H178.957V280.378Z" fill="#181818"/>
<path d="M118.294 125.791H207.773V137.916H118.294V125.791Z" fill="#181818"/>
<path d="M118.294 174.289H207.773V183.382H118.294V174.289Z" fill="#181818"/>
<path d="M113.915 0H90.8242V341H113.915V0Z" fill="#181818"/>
<path d="M143.164 0H112.376V15.1556H143.164V0Z" fill="#181818"/>
<path d="M113.915 24.2489C113.915 19.2269 118.051 15.1557 123.151 15.1556H113.915V24.2489Z" fill="#181818"/>
<path d="M129.309 336.453C120.807 336.453 113.915 329.668 113.915 321.298V336.453H129.309Z" fill="#181818"/>
<path d="M90.8242 321.298C90.8242 329.668 83.9319 336.453 75.4303 336.453H90.8242V321.298Z" fill="#181818"/>
<path d="M143.164 336.453H113.915V341H143.164V336.453Z" fill="#181818"/>
<path d="M93.903 336.453H64.6545V341H93.903V336.453Z" fill="#181818"/>
<path d="M90.8242 0H0V16.6711H90.8242V0Z" fill="#181818"/>
<path d="M16.9333 16.6711H0V125.791L16.9333 134.127V16.6711Z" fill="#181818"/>
<path d="M16.9333 280.378H0V173.37L16.9333 165.196L16.9333 280.378Z" fill="#181818"/>
<path d="M90.8242 280.378H0V300.08H90.8242V280.378Z" fill="#181818"/>
<path d="M58.497 84.8711H41.5636V219.756H58.497V84.8711Z" fill="#181818"/>
<path d="M90.8242 125.791H69.2727V134.884H90.8242V125.791Z" fill="#181818"/>
<path d="M90.8242 174.289H69.2727V183.382H90.8242V174.289Z" fill="#181818"/>
<path d="M57.8374 113.667L54.5718 116.882L69.0859 131.171L72.3515 127.956L57.8374 113.667Z" fill="#181818"/>
<path d="M57.8374 162.164L54.5718 165.379L69.0859 179.669L72.3515 176.454L57.8374 162.164Z" fill="#181818"/>
<path d="M55.0147 142.724L58.2867 145.932L72.3514 132.031L69.0794 128.822L55.0147 142.724Z" fill="#181818"/>
<path d="M55.0147 191.222L58.2867 194.43L72.3514 180.529L69.0794 177.32L55.0147 191.222Z" fill="#181818"/>
<path d="M143.164 280.378H113.915V300.08H143.164V280.378Z" fill="#181818"/>
<path d="M204.739 125.791H113.915V137.916H204.739V125.791Z" fill="#181818"/>
<path d="M204.739 174.289H113.915V183.382H204.739V174.289Z" fill="#181818"/>
</svg>
