<svg width="1018" height="545" viewBox="0 0 1018 545" fill="none" xmlns="http://www.w3.org/2000/svg">
<path d="M556.773 0H579.521V341H556.773V0Z" fill="#456F57" fill-opacity="0.2"/>
<path d="M527.957 0H558.289V15.1556H527.957V0Z" fill="#456F57" fill-opacity="0.2"/>
<path d="M556.773 24.2489C556.773 19.2269 552.698 15.1557 547.673 15.1556H556.773V24.2489Z" fill="#456F57" fill-opacity="0.2"/>
<path d="M541.607 336.453C549.982 336.453 556.772 329.668 556.773 321.298V336.453H541.607Z" fill="#456F57" fill-opacity="0.2"/>
<path d="M579.521 321.298C579.521 329.668 586.312 336.453 594.687 336.453H579.521V321.298Z" fill="#456F57" fill-opacity="0.2"/>
<path d="M527.957 336.453H556.773V341H527.957V336.453Z" fill="#456F57" fill-opacity="0.2"/>
<path d="M576.488 336.453H605.303V341H576.488V336.453Z" fill="#456F57" fill-opacity="0.2"/>
<path d="M579.521 0H669V16.6711H579.521V0Z" fill="#456F57" fill-opacity="0.2"/>
<path d="M652.318 16.6711H669V125.791L652.318 134.127V16.6711Z" fill="#456F57" fill-opacity="0.2"/>
<path d="M652.318 280.378H669V173.37L652.318 165.196V280.378Z" fill="#456F57" fill-opacity="0.2"/>
<path d="M579.521 280.378H669V300.08H579.521V280.378Z" fill="#456F57" fill-opacity="0.2"/>
<path d="M611.37 84.8711H628.052V219.756H611.37V84.8711Z" fill="#456F57" fill-opacity="0.2"/>
<path d="M579.521 125.791H600.754V134.884H579.521V125.791Z" fill="#456F57" fill-opacity="0.2"/>
<path d="M579.521 174.289H600.754V183.382H579.521V174.289Z" fill="#456F57" fill-opacity="0.2"/>
<path d="M612.02 113.667L615.237 116.882L600.938 131.171L597.72 127.956L612.02 113.667Z" fill="#456F57" fill-opacity="0.2"/>
<path d="M612.02 162.164L615.237 165.379L600.938 179.669L597.72 176.454L612.02 162.164Z" fill="#456F57" fill-opacity="0.2"/>
<path d="M614.8 142.724L611.577 145.932L597.72 132.031L600.944 128.822L614.8 142.724Z" fill="#456F57" fill-opacity="0.2"/>
<path d="M614.8 191.222L611.577 194.43L597.72 180.529L600.944 177.32L614.8 191.222Z" fill="#456F57" fill-opacity="0.2"/>
<path d="M527.957 280.378H556.773V300.08H527.957V280.378Z" fill="#456F57" fill-opacity="0.2"/>
<path d="M467.294 125.791H556.773V137.916H467.294V125.791Z" fill="#456F57" fill-opacity="0.2"/>
<path d="M467.294 174.289H556.773V183.382H467.294V174.289Z" fill="#456F57" fill-opacity="0.2"/>
<path d="M462.915 0H439.824V341H462.915V0Z" fill="#456F57" fill-opacity="0.2"/>
<path d="M492.164 0H461.376V15.1556H492.164V0Z" fill="#456F57" fill-opacity="0.2"/>
<path d="M462.915 24.2489C462.915 19.2269 467.051 15.1557 472.151 15.1556H462.915V24.2489Z" fill="#456F57" fill-opacity="0.2"/>
<path d="M478.309 336.453C469.807 336.453 462.915 329.668 462.915 321.298V336.453H478.309Z" fill="#456F57" fill-opacity="0.2"/>
<path d="M439.824 321.298C439.824 329.668 432.932 336.453 424.43 336.453H439.824V321.298Z" fill="#456F57" fill-opacity="0.2"/>
<path d="M492.164 336.453H462.915V341H492.164V336.453Z" fill="#456F57" fill-opacity="0.2"/>
<path d="M442.903 336.453H413.655V341H442.903V336.453Z" fill="#456F57" fill-opacity="0.2"/>
<path d="M439.824 0H349V16.6711H439.824V0Z" fill="#456F57" fill-opacity="0.2"/>
<path d="M365.933 16.6711H349V125.791L365.933 134.127V16.6711Z" fill="#456F57" fill-opacity="0.2"/>
<path d="M365.933 280.378H349V173.37L365.933 165.196L365.933 280.378Z" fill="#456F57" fill-opacity="0.2"/>
<path d="M439.824 280.378H349V300.08H439.824V280.378Z" fill="#456F57" fill-opacity="0.2"/>
<path d="M407.497 84.8711H390.564V219.756H407.497V84.8711Z" fill="#456F57" fill-opacity="0.2"/>
<path d="M439.824 125.791H418.273V134.884H439.824V125.791Z" fill="#456F57" fill-opacity="0.2"/>
<path d="M439.824 174.289H418.273V183.382H439.824V174.289Z" fill="#456F57" fill-opacity="0.2"/>
<path d="M406.837 113.667L403.572 116.882L418.086 131.171L421.351 127.956L406.837 113.667Z" fill="#456F57" fill-opacity="0.2"/>
<path d="M406.837 162.164L403.572 165.379L418.086 179.669L421.351 176.454L406.837 162.164Z" fill="#456F57" fill-opacity="0.2"/>
<path d="M404.015 142.724L407.287 145.932L421.351 132.031L418.079 128.822L404.015 142.724Z" fill="#456F57" fill-opacity="0.2"/>
<path d="M404.015 191.222L407.287 194.43L421.351 180.529L418.079 177.32L404.015 191.222Z" fill="#456F57" fill-opacity="0.2"/>
<path d="M492.164 280.378H462.915V300.08H492.164V280.378Z" fill="#456F57" fill-opacity="0.2"/>
<path d="M553.739 125.791H462.915V137.916H553.739V125.791Z" fill="#456F57" fill-opacity="0.2"/>
<path d="M553.739 174.289H462.915V183.382H553.739V174.289Z" fill="#456F57" fill-opacity="0.2"/>
<path d="M19.68 433.4H6.08V431.8H46.88V433.4H33.28V485.72H82.88V433.4H69.28V431.8H110.08V433.4H96.48V541.4H110.08V543H69.28V541.4H82.88V487.32H33.28V541.4H46.88V543H6.08V541.4H19.68V433.4ZM142.569 544.6C138.942 544.6 135.582 544.013 132.489 542.84C129.502 541.56 126.889 539.96 124.649 538.04C122.409 536.013 120.649 533.72 119.369 531.16C118.089 528.493 117.449 525.773 117.449 523C117.449 517.773 118.675 513.667 121.129 510.68C123.582 507.587 126.675 505.187 130.409 503.48C134.142 501.667 138.195 500.28 142.569 499.32C146.942 498.36 150.995 497.347 154.729 496.28C158.569 495.107 161.769 493.667 164.329 491.96C166.889 490.253 168.275 487.747 168.489 484.44V478.04C168.489 472.6 167.102 468.493 164.329 465.72C161.555 462.84 157.555 461.4 152.329 461.4C149.022 461.4 146.622 461.827 145.129 462.68C143.635 463.427 142.675 464.387 142.249 465.56C141.822 466.733 141.662 468.067 141.769 469.56C141.982 470.947 142.089 472.28 142.089 473.56C142.089 476.333 141.342 478.573 139.849 480.28C138.355 481.88 136.382 482.68 133.929 482.68C131.475 482.68 129.449 481.933 127.849 480.44C126.249 478.947 125.449 477.133 125.449 475C125.449 472.973 126.195 471.053 127.689 469.24C129.182 467.32 131.155 465.667 133.609 464.28C136.062 462.893 138.889 461.827 142.089 461.08C145.395 460.227 148.809 459.8 152.329 459.8C156.595 459.8 160.489 460.333 164.009 461.4C167.529 462.467 170.569 463.907 173.129 465.72C175.689 467.533 177.662 469.72 179.049 472.28C180.542 474.84 181.289 477.667 181.289 480.76V533.08C181.289 537.88 182.569 540.28 185.129 540.28C186.195 540.28 187.155 540.067 188.009 539.64C188.862 539.107 189.875 538.147 191.049 536.76L192.329 537.56C189.022 542.253 185.289 544.6 181.129 544.6C176.649 544.6 173.395 543.373 171.369 540.92C169.449 538.467 168.489 534.627 168.489 529.4V525.56C167.742 528.227 166.515 530.733 164.809 533.08C163.102 535.427 161.075 537.453 158.729 539.16C156.489 540.867 153.929 542.2 151.049 543.16C148.275 544.12 145.449 544.6 142.569 544.6ZM130.889 520.76C130.889 525.56 132.435 529.667 135.529 533.08C138.622 536.387 142.889 538.04 148.329 538.04C150.675 538.04 153.022 537.56 155.369 536.6C157.715 535.64 159.849 534.36 161.769 532.76C163.689 531.16 165.235 529.293 166.409 527.16C167.689 524.92 168.382 522.627 168.489 520.28V489.72C167.422 491.96 165.715 493.773 163.369 495.16C161.129 496.44 158.569 497.613 155.689 498.68C152.915 499.64 150.035 500.6 147.049 501.56C144.169 502.52 141.502 503.8 139.049 505.4C136.702 506.893 134.729 508.867 133.129 511.32C131.635 513.667 130.889 516.813 130.889 520.76ZM263.391 543V524.44C261.578 530.52 258.165 535.427 253.151 539.16C248.138 542.787 242.218 544.6 235.391 544.6C227.925 544.6 221.951 542.52 217.471 538.36C213.098 534.093 210.911 528.44 210.911 521.4V463H198.111V461.4H223.711V522.04C223.711 528.12 225.151 532.813 228.031 536.12C231.018 539.32 235.231 540.92 240.671 540.92C243.978 540.92 247.018 540.28 249.791 539C252.565 537.613 254.965 535.693 256.991 533.24C259.018 530.787 260.565 527.853 261.631 524.44C262.805 521.027 263.391 517.24 263.391 513.08V463H250.591V461.4H276.191V541.4H288.991V543H263.391ZM306.84 540.12C305.453 540.12 304.333 540.44 303.48 541.08C302.627 541.613 301.88 542.467 301.24 543.64L300.6 544.6H299.48V516.12L300.44 515.8L300.6 518.84C300.813 522.36 301.613 525.613 303 528.6C304.493 531.48 306.467 533.987 308.92 536.12C311.48 538.253 314.467 539.907 317.88 541.08C321.4 542.253 325.24 542.84 329.4 542.84C335.48 542.84 340.227 541.613 343.64 539.16C347.16 536.6 348.92 532.92 348.92 528.12C348.92 524.067 347.693 520.707 345.24 518.04C342.893 515.373 339.907 513.08 336.28 511.16C332.653 509.24 328.707 507.427 324.44 505.72C320.173 504.013 316.227 502.093 312.6 499.96C308.973 497.827 305.933 495.267 303.48 492.28C301.133 489.187 299.96 485.347 299.96 480.76C299.96 477.667 300.6 474.84 301.88 472.28C303.267 469.72 305.133 467.533 307.48 465.72C309.933 463.8 312.813 462.36 316.12 461.4C319.533 460.333 323.213 459.8 327.16 459.8C329.933 459.8 332.28 460.067 334.2 460.6C336.12 461.027 337.827 461.56 339.32 462.2C340.92 462.733 342.413 463.267 343.8 463.8C345.187 464.227 346.627 464.44 348.12 464.44C350.147 464.44 351.8 463.267 353.08 460.92L353.72 459.8H354.84V488.28H353.88V486.2C353.773 482.68 353.027 479.427 351.64 476.44C350.253 473.347 348.387 470.68 346.04 468.44C343.8 466.2 341.133 464.493 338.04 463.32C334.947 462.04 331.64 461.4 328.12 461.4C323.107 461.4 319.107 462.733 316.12 465.4C313.24 467.96 311.8 471.373 311.8 475.64C311.8 479.48 312.973 482.627 315.32 485.08C317.773 487.533 320.813 489.72 324.44 491.64C328.173 493.56 332.12 495.373 336.28 497.08C340.547 498.787 344.493 500.813 348.12 503.16C351.853 505.4 354.893 508.173 357.24 511.48C359.693 514.68 360.92 518.787 360.92 523.8C360.92 530.52 358.307 535.693 353.08 539.32C347.96 542.84 340.493 544.6 330.68 544.6C327.48 544.6 324.707 544.333 322.36 543.8C320.12 543.373 318.093 542.893 316.28 542.36C314.467 541.827 312.813 541.347 311.32 540.92C309.827 540.387 308.333 540.12 306.84 540.12ZM423.549 502.04C423.549 515.8 425.575 525.933 429.629 532.44C433.682 538.947 439.922 542.2 448.349 542.2C456.669 542.2 462.695 539 466.429 532.6C470.269 526.2 472.189 516.013 472.189 502.04C472.189 488.067 470.269 477.933 466.429 471.64C462.695 465.347 456.669 462.2 448.349 462.2C431.815 462.2 423.549 475.48 423.549 502.04ZM409.949 502.04C409.949 495.64 410.855 489.88 412.669 484.76C414.589 479.533 417.202 475.107 420.509 471.48C423.922 467.747 427.975 464.867 432.669 462.84C437.469 460.813 442.749 459.8 448.509 459.8C454.055 459.8 459.122 460.813 463.709 462.84C468.295 464.867 472.189 467.747 475.389 471.48C478.695 475.213 481.255 479.693 483.069 484.92C484.882 490.04 485.789 495.747 485.789 502.04C485.789 508.44 484.882 514.253 483.069 519.48C481.255 524.707 478.695 529.187 475.389 532.92C472.189 536.653 468.295 539.533 463.709 541.56C459.122 543.587 454.055 544.6 448.509 544.6C442.749 544.6 437.469 543.587 432.669 541.56C427.975 539.533 423.922 536.653 420.509 532.92C417.202 529.187 414.589 524.707 412.669 519.48C410.855 514.253 409.949 508.44 409.949 502.04ZM494.83 543V541.4H507.63V463H500.11V461.4H507.63C507.63 457.56 508.483 453.827 510.19 450.2C511.897 446.467 514.083 443.107 516.75 440.12C519.523 437.133 522.617 434.733 526.03 432.92C529.443 431.107 532.91 430.2 536.43 430.2C540.483 430.2 543.737 431.107 546.19 432.92C548.75 434.627 550.03 436.973 550.03 439.96C550.03 442.413 549.283 444.387 547.79 445.88C546.403 447.373 544.483 448.12 542.03 448.12C538.937 448.12 536.857 447.373 535.79 445.88C534.83 444.28 534.19 442.52 533.87 440.6C533.657 438.68 533.443 436.973 533.23 435.48C533.123 433.88 532.377 433.08 530.99 433.08C527.897 433.08 525.337 434.787 523.31 438.2C521.39 441.613 520.43 446.04 520.43 451.48V461.4H534.83V463H520.43V541.4H533.23V543H494.83ZM600.611 543V541.4H614.211V433.4H600.611V431.8H678.851L681.891 468.6H680.771L680.291 464.28C678.798 453.72 675.118 445.933 669.251 440.92C663.491 435.907 655.118 433.4 644.131 433.4H627.811V482.36H638.691C641.998 482.36 644.771 481.987 647.011 481.24C649.251 480.387 651.118 479.16 652.611 477.56C654.211 475.853 655.545 473.667 656.611 471C657.678 468.227 658.691 464.92 659.651 461.08H660.771V505.08H659.651C658.798 501.24 657.838 497.987 656.771 495.32C655.705 492.653 654.371 490.52 652.771 488.92C651.171 487.213 649.198 485.987 646.851 485.24C644.611 484.387 641.891 483.96 638.691 483.96H627.811V541.4H644.771C650.531 541.4 655.438 540.867 659.491 539.8C663.545 538.627 666.958 536.813 669.731 534.36C672.505 531.907 674.691 528.76 676.291 524.92C677.998 520.973 679.331 516.227 680.291 510.68L681.731 502.36H682.851L680.131 543H600.611ZM703.871 540.12C702.485 540.12 701.365 540.44 700.511 541.08C699.658 541.613 698.911 542.467 698.271 543.64L697.631 544.6H696.511V516.12L697.471 515.8L697.631 518.84C697.845 522.36 698.645 525.613 700.031 528.6C701.525 531.48 703.498 533.987 705.951 536.12C708.511 538.253 711.498 539.907 714.911 541.08C718.431 542.253 722.271 542.84 726.431 542.84C732.511 542.84 737.258 541.613 740.671 539.16C744.191 536.6 745.951 532.92 745.951 528.12C745.951 524.067 744.725 520.707 742.271 518.04C739.925 515.373 736.938 513.08 733.311 511.16C729.685 509.24 725.738 507.427 721.471 505.72C717.205 504.013 713.258 502.093 709.631 499.96C706.005 497.827 702.965 495.267 700.511 492.28C698.165 489.187 696.991 485.347 696.991 480.76C696.991 477.667 697.631 474.84 698.911 472.28C700.298 469.72 702.165 467.533 704.511 465.72C706.965 463.8 709.845 462.36 713.151 461.4C716.565 460.333 720.245 459.8 724.191 459.8C726.965 459.8 729.311 460.067 731.231 460.6C733.151 461.027 734.858 461.56 736.351 462.2C737.951 462.733 739.445 463.267 740.831 463.8C742.218 464.227 743.658 464.44 745.151 464.44C747.178 464.44 748.831 463.267 750.111 460.92L750.751 459.8H751.871V488.28H750.911V486.2C750.805 482.68 750.058 479.427 748.671 476.44C747.285 473.347 745.418 470.68 743.071 468.44C740.831 466.2 738.165 464.493 735.071 463.32C731.978 462.04 728.671 461.4 725.151 461.4C720.138 461.4 716.138 462.733 713.151 465.4C710.271 467.96 708.831 471.373 708.831 475.64C708.831 479.48 710.005 482.627 712.351 485.08C714.805 487.533 717.845 489.72 721.471 491.64C725.205 493.56 729.151 495.373 733.311 497.08C737.578 498.787 741.525 500.813 745.151 503.16C748.885 505.4 751.925 508.173 754.271 511.48C756.725 514.68 757.951 518.787 757.951 523.8C757.951 530.52 755.338 535.693 750.111 539.32C744.991 542.84 737.525 544.6 727.711 544.6C724.511 544.6 721.738 544.333 719.391 543.8C717.151 543.373 715.125 542.893 713.311 542.36C711.498 541.827 709.845 541.347 708.351 540.92C706.858 540.387 705.365 540.12 703.871 540.12ZM806.334 537.08C803.454 542.093 798.547 544.6 791.614 544.6C781.054 544.6 775.774 538.893 775.774 527.48V463H762.174V461.4L766.174 461.24C773 461.027 778.067 458.787 781.374 454.52C784.68 450.147 786.547 442.84 786.974 432.6V431.8H788.574V461.4H805.374V463H788.574V531.16C788.574 534.467 789.214 537.08 790.494 539C791.88 540.813 793.8 541.72 796.254 541.72C797.96 541.72 799.614 541.24 801.214 540.28C802.814 539.32 804.2 537.987 805.374 536.28L806.334 537.08ZM840.381 544.6C836.755 544.6 833.395 544.013 830.301 542.84C827.315 541.56 824.701 539.96 822.461 538.04C820.221 536.013 818.461 533.72 817.181 531.16C815.901 528.493 815.261 525.773 815.261 523C815.261 517.773 816.488 513.667 818.941 510.68C821.395 507.587 824.488 505.187 828.221 503.48C831.955 501.667 836.008 500.28 840.381 499.32C844.755 498.36 848.808 497.347 852.541 496.28C856.381 495.107 859.581 493.667 862.141 491.96C864.701 490.253 866.088 487.747 866.301 484.44V478.04C866.301 472.6 864.915 468.493 862.141 465.72C859.368 462.84 855.368 461.4 850.141 461.4C846.835 461.4 844.435 461.827 842.941 462.68C841.448 463.427 840.488 464.387 840.061 465.56C839.635 466.733 839.475 468.067 839.581 469.56C839.795 470.947 839.901 472.28 839.901 473.56C839.901 476.333 839.155 478.573 837.661 480.28C836.168 481.88 834.195 482.68 831.741 482.68C829.288 482.68 827.261 481.933 825.661 480.44C824.061 478.947 823.261 477.133 823.261 475C823.261 472.973 824.008 471.053 825.501 469.24C826.995 467.32 828.968 465.667 831.421 464.28C833.875 462.893 836.701 461.827 839.901 461.08C843.208 460.227 846.621 459.8 850.141 459.8C854.408 459.8 858.301 460.333 861.821 461.4C865.341 462.467 868.381 463.907 870.941 465.72C873.501 467.533 875.475 469.72 876.861 472.28C878.355 474.84 879.101 477.667 879.101 480.76V533.08C879.101 537.88 880.381 540.28 882.941 540.28C884.008 540.28 884.968 540.067 885.821 539.64C886.675 539.107 887.688 538.147 888.861 536.76L890.141 537.56C886.835 542.253 883.101 544.6 878.941 544.6C874.461 544.6 871.208 543.373 869.181 540.92C867.261 538.467 866.301 534.627 866.301 529.4V525.56C865.555 528.227 864.328 530.733 862.621 533.08C860.915 535.427 858.888 537.453 856.541 539.16C854.301 540.867 851.741 542.2 848.861 543.16C846.088 544.12 843.261 544.6 840.381 544.6ZM828.701 520.76C828.701 525.56 830.248 529.667 833.341 533.08C836.435 536.387 840.701 538.04 846.141 538.04C848.488 538.04 850.835 537.56 853.181 536.6C855.528 535.64 857.661 534.36 859.581 532.76C861.501 531.16 863.048 529.293 864.221 527.16C865.501 524.92 866.195 522.627 866.301 520.28V489.72C865.235 491.96 863.528 493.773 861.181 495.16C858.941 496.44 856.381 497.613 853.501 498.68C850.728 499.64 847.848 500.6 844.861 501.56C841.981 502.52 839.315 503.8 836.861 505.4C834.515 506.893 832.541 508.867 830.941 511.32C829.448 513.667 828.701 516.813 828.701 520.76ZM936.959 537.08C934.079 542.093 929.172 544.6 922.239 544.6C911.679 544.6 906.399 538.893 906.399 527.48V463H892.799V461.4L896.799 461.24C903.625 461.027 908.692 458.787 911.999 454.52C915.305 450.147 917.172 442.84 917.599 432.6V431.8H919.199V461.4H935.999V463H919.199V531.16C919.199 534.467 919.839 537.08 921.119 539C922.505 540.813 924.425 541.72 926.879 541.72C928.585 541.72 930.239 541.24 931.839 540.28C933.439 539.32 934.825 537.987 935.999 536.28L936.959 537.08ZM976.521 459.8C987.615 459.8 995.775 463.267 1001 470.2C1006.23 477.027 1008.84 487.693 1008.84 502.2H956.361C956.361 515.64 958.495 525.827 962.761 532.76C967.135 539.587 973.535 543 981.961 543C989.321 543 995.135 540.973 999.401 536.92C1003.67 532.76 1006.07 526.893 1006.6 519.32L1008.04 519.64C1007.61 527.427 1005.05 533.56 1000.36 538.04C995.775 542.413 989.588 544.6 981.801 544.6C975.721 544.6 970.281 543.64 965.481 541.72C960.681 539.693 956.575 536.867 953.161 533.24C949.855 529.507 947.295 525.027 945.481 519.8C943.668 514.467 942.761 508.547 942.761 502.04C942.761 495.64 943.561 489.827 945.161 484.6C946.761 479.373 949.001 474.947 951.881 471.32C954.868 467.587 958.441 464.76 962.601 462.84C966.761 460.813 971.401 459.8 976.521 459.8ZM976.521 462.2C969.481 462.2 964.361 465.293 961.161 471.48C958.068 477.56 956.468 487.267 956.361 500.6H995.241C995.241 493.667 994.868 487.747 994.121 482.84C993.375 477.933 992.255 473.987 990.761 471C989.268 467.907 987.348 465.667 985.001 464.28C982.655 462.893 979.828 462.2 976.521 462.2Z" fill="#BD9E63" fill-opacity="0.2"/>
</svg>
